<svg width="112" height="82" viewBox="0 0 112 82" fill="none" xmlns="http://www.w3.org/2000/svg">
<g clip-path="url(#clip0_19_278)">
<path d="M53.4051 7.32285C51.7747 10.4741 49.8693 17.2675 49.8693 17.2675C49.8693 17.2675 49.6974 17.7733 49.3494 17.1857C49.1174 16.8068 46.4 13.0916 45.0295 11.4255C43.4592 9.50765 36.4778 2.12668 28.4652 6.31117C21.2453 10.1039 24.0099 19.3231 26.2268 22.7908C27.5758 24.8917 30.1751 28.1807 30.9098 29.1041C31.0344 29.2634 31.0107 29.3258 30.8045 29.272C30.1837 29.1063 28.5704 28.6822 25.621 27.9203C22.9681 27.2401 20.4139 27.3477 19.647 28.4907C19.1057 29.3086 18.7642 30.6109 19.8447 32.5611C21.967 36.3947 27.81 42.4777 37.4058 44.4731C37.5969 44.5118 37.5776 44.6647 37.438 44.9466C36.8988 46.0466 37.1501 46.9269 37.5841 47.4242C39.0104 49.1376 40.5915 49.7726 46.9607 50.8725C55.8089 52.3965 58.9194 49.3959 59.2911 49.002L59.3963 48.9761C60.7797 49.3055 66.3606 50.6013 73.0886 47.7191C79.2473 45.0995 81.6017 42.7123 81.6404 41.2529C81.6747 39.9141 78.459 40.0884 77.5095 39.8409C77.213 39.7569 77.3033 39.6278 77.4644 39.5201C77.8961 39.2446 78.981 38.7948 79.8531 38.3427C80.751 37.8799 89.7432 33.3338 91.5261 25.6515C93.3027 17.9455 86.3663 17.924 82.6264 19.5018C78.8843 21.0968 75.3592 22.864 74.5751 23.2278C74.4462 23.288 74.4076 23.2428 74.4656 23.1094C74.8179 22.2441 76.1798 18.8323 76.8672 15.6595C77.6534 12.0153 77.2861 2.03197 67.4433 0.198031C66.7322 0.0667279 66.0083 0 65.2736 0C60.6637 0 55.882 2.59378 53.403 7.32285M53.794 22.9996C54.563 20.7997 54.8315 19.6761 56.1225 15.4335C57.7208 10.1642 61.1879 6.02704 66.7859 7.73398C73.3335 9.73582 71.8083 16.3785 70.7493 19.0756C69.8965 21.241 69.2305 23.4602 67.8213 27.0614C66.7022 29.9781 69.1081 30.0685 70.3927 29.7822C71.8599 29.4485 76.1239 27.2487 78.7941 25.9938C80.7747 25.0854 84.4458 22.864 86.5038 25.0101C88.6047 27.1841 86.2417 30.9015 83.7477 33.1401C81.2601 35.3938 74.6267 38.1641 72.558 38.9863C70.5001 39.8086 69.7482 40.9709 70.7493 41.6124C71.7396 42.256 74.6847 42.7618 75.5633 42.8695C76.2915 42.9577 77.0025 43.1471 77.0025 43.653C77.009 44.2923 75.3291 45.5945 71.2412 46.9635C69.0608 47.6932 65.0782 48.2163 62.8398 47.7987C59.3168 47.1465 58.754 46.5847 57.1171 47.2111C55.8927 47.6954 55.7917 48.6791 54.0174 49.3873C52.2022 50.117 49.6137 49.9469 47.6051 49.6047C45.5365 49.2517 42.0866 48.9309 41.73 47.3187C41.5817 46.6708 42.2756 46.2747 42.8599 45.6333C43.4571 44.9875 43.9533 43.7434 41.4185 43.2052C40.7461 43.0632 33.7303 41.9396 29.4039 39.716C25.0324 37.4494 23.359 34.0485 23.808 32.8538C24.1818 31.8637 25.1699 31.7711 26.5061 32.0229C28.0441 32.3135 34.7592 34.1475 36.7849 34.169C37.6206 34.1776 38.2693 34.0097 38.5615 33.4931C39.3563 32.094 36.9117 30.4129 34.8967 27.9698C31.9946 24.5085 26.4717 18.7312 30.6327 13.5737C33.393 10.1642 38.8214 12.3813 41.0812 15.0095C42.8148 17.0264 45.8286 21.1441 48.1465 23.9338C49.0423 25.0057 50.0497 25.5503 50.9863 25.5503C52.1485 25.5503 53.2011 24.7109 53.7961 22.9975" fill="#fff"/>
<path d="M107.837 78.9413C107.71 79.1221 107.59 79.3072 107.457 79.4815C106.52 80.7063 105.281 81.4618 103.786 81.774C101.517 82.2475 99.3238 81.9828 97.2422 80.9625C95.3948 80.0584 94.1124 78.6119 93.367 76.6919C93.0491 75.8739 92.8751 75.0258 92.7934 74.1541C92.671 72.8496 92.7483 71.5624 93.1049 70.3011C93.5689 68.6695 94.4174 67.2768 95.6913 66.1467C97.1735 64.8315 98.9135 64.0954 100.853 63.8091C101.878 63.6584 102.905 63.6778 103.936 63.7854C104.952 63.8909 105.936 64.1147 106.875 64.5151C108.541 65.2254 109.854 66.3426 110.737 67.9462C111.362 69.0827 111.719 70.3032 111.89 71.5818C111.972 72.1824 112 72.7872 112 73.3942C111.998 75.9536 112 78.5129 112 81.0744C112 81.1261 112 81.1777 111.998 81.2272C111.985 81.3844 111.955 81.4123 111.794 81.4274C111.742 81.4317 111.691 81.4274 111.641 81.4274C110.541 81.4274 109.444 81.4274 108.344 81.4274C108.327 81.4274 108.309 81.4274 108.292 81.4274C107.94 81.4253 107.929 81.4145 107.929 81.0722C107.929 80.5944 107.931 80.1165 107.927 79.6387C107.925 79.4105 107.903 79.1823 107.891 78.952C107.873 78.9477 107.856 78.9434 107.839 78.9413H107.837ZM107.738 72.9099C107.76 72.2663 107.691 71.5538 107.571 70.8457C107.416 69.9416 107.167 69.0655 106.731 68.2519C106.022 66.9324 104.969 66.0606 103.48 65.755C102.89 65.6344 102.297 65.6387 101.702 65.7076C100.997 65.7894 100.342 66.0133 99.7448 66.4007C98.8276 66.997 98.2154 67.8429 97.7836 68.8331C97.268 70.0148 97.0704 71.2675 97.0145 72.544C96.9802 73.321 97.021 74.0959 97.1198 74.8665C97.2315 75.734 97.4291 76.58 97.8137 77.3699C98.3571 78.4828 99.1777 79.3007 100.364 79.7032C101.062 79.94 101.786 80.0476 102.525 80.0261C103.779 79.9895 104.87 79.5504 105.775 78.6786C106.443 78.035 106.896 77.2472 107.207 76.3755C107.601 75.2777 107.753 74.1433 107.736 72.9078L107.738 72.9099Z" fill="#fff"/>
<path d="M37.6334 78.896C37.4336 79.1716 37.2574 79.4621 37.0383 79.7248C36.4261 80.4609 35.6743 81.0055 34.7978 81.3822C34.0309 81.7115 33.2297 81.8945 32.3983 81.9569C30.5595 82.0925 28.7916 81.817 27.1311 81.0012C24.955 79.9292 23.563 78.1857 22.9444 75.8481C22.3987 73.786 22.4331 71.7217 23.1463 69.6983C23.8938 67.5781 25.2966 66.0046 27.2578 64.9262C28.4307 64.2805 29.6917 63.9102 31.0171 63.7617C31.7367 63.6821 32.4606 63.6842 33.1846 63.7359C34.22 63.8091 35.2296 63.9856 36.2049 64.3407C37.3906 64.7734 38.4454 65.417 39.3197 66.3383C40.1317 67.1928 40.7031 68.1937 41.0962 69.3001C41.4163 70.1977 41.5967 71.1233 41.6912 72.0704C41.7299 72.4536 41.7385 72.8367 41.7406 73.2199C41.7428 75.8395 41.7428 78.4591 41.7428 81.0808C41.7428 81.1411 41.7428 81.1992 41.7385 81.2595C41.7342 81.3628 41.6783 81.4145 41.5795 81.4231C41.5194 81.4274 41.4614 81.4274 41.4012 81.4274C40.2842 81.4274 39.1693 81.4274 38.0523 81.4274C38.0351 81.4274 38.0179 81.4274 38.0007 81.4274C37.7021 81.4231 37.6828 81.4059 37.6828 81.1045C37.6806 80.4394 37.6828 79.7721 37.6806 79.107C37.6806 79.0403 37.6806 78.9735 37.6806 78.9068C37.6634 78.9025 37.6463 78.8982 37.6291 78.8939L37.6334 78.896ZM37.5303 72.9573C37.5152 72.3545 37.4787 71.7002 37.3777 71.0501C37.2231 70.0578 36.9653 69.0956 36.4841 68.2088C35.8074 66.9625 34.8129 66.1166 33.4123 65.7872C32.7377 65.6279 32.0611 65.6258 31.3823 65.7248C30.5574 65.8453 29.812 66.1575 29.1632 66.6956C28.435 67.2961 27.9345 68.0581 27.5736 68.9191C27.0129 70.2558 26.8454 71.6679 26.8325 73.0993C26.8261 73.7279 26.8712 74.3607 26.9657 74.9849C27.1118 75.9622 27.3438 76.9114 27.8507 77.7703C28.3985 78.7002 29.1654 79.3696 30.1986 79.7161C30.654 79.869 31.1202 79.9529 31.5971 80.0024C32.7635 80.1251 33.8548 79.9056 34.8429 79.2598C35.7946 78.6377 36.4304 77.7531 36.8622 76.7134C37.3541 75.5295 37.5152 74.2832 37.5346 72.9573H37.5303Z" fill="#fff"/>
<path d="M19.0455 76.8253C19.0455 78.2503 19.0455 79.6752 19.0455 81.1002C19.0455 81.3556 18.9181 81.4833 18.6632 81.4833C17.5053 81.4833 16.3453 81.4833 15.1875 81.4833C15.1617 81.4833 15.1359 81.4833 15.1101 81.4833C14.8438 81.4769 14.8244 81.4597 14.8244 81.1842C14.8244 79.63 14.8244 78.0781 14.8244 76.524C14.8244 75.96 14.818 75.3982 14.8244 74.8342C14.8373 73.9302 14.8115 73.024 14.7729 72.1221C14.717 70.8284 14.5044 69.5584 13.9523 68.3702C13.3358 67.0421 12.3584 66.1166 10.8976 65.8066C9.65169 65.5418 8.42081 65.6236 7.25007 66.1639C6.3414 66.5837 5.70125 67.2897 5.23296 68.1614C4.79689 68.9772 4.56703 69.8576 4.41881 70.7638C4.28992 71.5667 4.26629 72.3739 4.24911 73.1854C4.19111 75.8567 4.23622 78.5279 4.22333 81.1971C4.22333 81.2401 4.22333 81.2832 4.22333 81.3241C4.22548 81.4338 4.16533 81.4769 4.06437 81.479C4.00422 81.479 3.94407 81.479 3.88607 81.479C2.71104 81.479 1.53385 81.479 0.358817 81.4769C0.315854 81.4769 0.272891 81.4769 0.232076 81.4769C0.0430393 81.4661 0.0151134 81.4381 0.0043727 81.2487C0.00222455 81.2057 0.0043727 81.1626 0.0043727 81.1217C0.0043727 78.5624 0.00652085 76.0009 0.0043727 73.4416C0.0043727 72.3179 0.122521 71.2116 0.414668 70.1245C0.749779 68.8911 1.28682 67.7568 2.10956 66.7709C2.88718 65.841 3.83237 65.1264 4.93651 64.6249C6.12229 64.0867 7.37251 63.8241 8.66784 63.7359C10.1071 63.639 11.5292 63.7294 12.9233 64.1083C14.3561 64.4957 15.6257 65.1867 16.6611 66.2694C17.4258 67.0701 17.9672 68.0129 18.3517 69.0483C18.7126 70.0234 18.9038 71.0329 19.0004 72.0661C19.0563 72.6623 19.0455 73.2586 19.0477 73.857C19.0541 74.8471 19.0477 75.8373 19.0477 76.8275H19.0455V76.8253Z" fill="#fff"/>
<path d="M73.3828 69.143C73.3828 67.675 73.3828 66.207 73.3828 64.739C73.3828 64.3193 73.3828 64.3193 73.8146 64.3193C74.9402 64.3193 76.0637 64.3171 77.1893 64.315C77.258 64.315 77.3246 64.315 77.3934 64.315C77.634 64.3214 77.6511 64.3386 77.6511 64.5819C77.6468 66.3491 77.6404 68.1141 77.6383 69.8814C77.6361 70.9146 77.6554 71.9478 77.6297 72.9788C77.5974 74.3026 77.3568 75.592 76.8585 76.8232C75.8789 79.2362 74.1196 80.7881 71.6385 81.5329C70.8351 81.774 70.0123 81.8967 69.1767 81.957C67.7611 82.0603 66.3669 81.9419 65.0029 81.5544C62.5046 80.8441 60.7839 79.2728 59.8473 76.8426C59.5101 75.9687 59.3189 75.0625 59.2072 74.1347C59.1234 73.4395 59.1062 72.7399 59.1062 72.0403C59.1105 69.608 59.1062 67.1756 59.1062 64.7433C59.1062 64.3171 59.1062 64.3171 59.5251 64.3171C60.6593 64.3171 61.7914 64.315 62.9256 64.3128C62.9686 64.3128 63.0115 64.3128 63.0545 64.3128C63.3488 64.315 63.366 64.3343 63.366 64.6378C63.366 65.3977 63.3617 66.1575 63.3617 66.9173C63.3617 68.9321 63.3617 70.9469 63.3724 72.9595C63.3789 73.8377 63.4519 74.7137 63.6281 75.5791C63.7806 76.3346 63.9997 77.0686 64.367 77.7509C65.0695 79.0554 66.1414 79.8066 67.6193 79.9853C68.3497 80.0735 69.065 80.0175 69.7717 79.8367C70.848 79.5612 71.6686 78.9348 72.2486 77.9899C72.6825 77.2839 72.9424 76.5089 73.1078 75.7018C73.2797 74.8644 73.3742 74.0163 73.3763 73.1618C73.3806 71.8208 73.3763 70.4819 73.3763 69.1409C73.3785 69.1409 73.3828 69.1409 73.3849 69.1409L73.3828 69.143Z" fill="#fff"/>
<path d="M50.5396 70.7165C50.5396 71.782 50.5396 72.8497 50.5396 73.9151C50.5396 74.8106 50.5675 75.706 50.6921 76.595C50.7952 77.3333 50.9649 78.0587 51.3731 78.6959C51.7511 79.2878 52.2753 79.686 52.9734 79.8324C54.0518 80.0584 55.0894 79.9056 56.0968 79.4945C56.2537 79.4299 56.4083 79.3567 56.563 79.2835C56.6725 79.2318 56.737 79.262 56.7799 79.3739C56.9454 79.7915 57.1924 80.1553 57.491 80.4889C57.607 80.6202 57.6005 80.659 57.4394 80.7666C57.0356 81.04 56.6016 81.2595 56.1462 81.4317C55.0743 81.8407 53.9616 82.0344 52.8166 81.9828C51.6115 81.9289 50.4558 81.6663 49.4075 81.0292C48.3528 80.3877 47.6095 79.4772 47.109 78.3579C46.6686 77.3721 46.4624 76.3324 46.3679 75.2626C46.3185 74.7094 46.3228 74.1541 46.3228 73.6009C46.3228 69.2313 46.3228 64.8638 46.3228 60.4942C46.3228 59.9798 46.2948 60.0099 46.8126 60.0099C47.9274 60.0099 49.0445 60.0078 50.1594 60.0078C50.5417 60.0078 50.5396 60.0078 50.5396 60.3909C50.5396 61.5597 50.5396 62.7285 50.5396 63.8973C50.5396 63.9662 50.5374 64.0351 50.5417 64.1018C50.5546 64.2633 50.5804 64.2869 50.7458 64.2977C50.8231 64.302 50.8983 64.2977 50.9757 64.2977C52.5438 64.2977 54.1098 64.2977 55.6779 64.2977C56.0496 64.2977 56.0517 64.2977 56.0517 64.6636C56.0517 65.1157 56.0517 65.5677 56.0496 66.0197C56.0474 66.3039 56.0259 66.3232 55.7402 66.3232C54.1377 66.3232 52.5374 66.3232 50.9348 66.3254C50.6699 66.3254 50.5367 66.4552 50.5353 66.715C50.5353 68.0452 50.5353 69.3776 50.5353 70.7079L50.5396 70.7165Z" fill="#fff"/>
<path d="M82.1152 76.0224C82.1152 74.4447 82.1109 72.8647 82.1152 71.2869C82.1195 70.2494 82.2634 69.2291 82.5727 68.2368C82.8735 67.2725 83.331 66.3921 84.0292 65.6495C84.8927 64.7325 85.9561 64.175 87.1784 63.906C88.0913 63.7036 89.0129 63.6584 89.9473 63.7316C90.5015 63.7746 91.0472 63.85 91.5885 63.9705C91.8549 64.0308 91.8914 64.0609 91.8807 64.33C91.8656 64.7304 91.885 65.1307 91.8807 65.5311C91.8807 65.7916 91.8355 65.8346 91.5735 65.8045C91.0966 65.7507 90.6218 65.7636 90.145 65.7636C89.7927 65.7636 89.449 65.8174 89.1074 65.8949C87.8142 66.1941 87.0624 67.0508 86.6864 68.282C86.491 68.9235 86.4158 69.5843 86.3814 70.2494C86.3492 70.8715 86.3341 71.4936 86.3341 72.1156C86.3298 75.1356 86.3341 78.1577 86.3341 81.1777C86.3341 81.2122 86.3341 81.2466 86.3341 81.281C86.3277 81.4532 86.3105 81.4705 86.143 81.4812C86.0828 81.4855 86.0227 81.4812 85.9647 81.4812C84.8068 81.4812 83.6468 81.4812 82.489 81.4791C82.4374 81.4791 82.3859 81.4791 82.3364 81.4791C82.1496 81.4683 82.1238 81.4403 82.1152 81.2444C82.113 81.1928 82.1152 81.1411 82.1152 81.0916C82.1152 79.4019 82.1152 77.7122 82.1152 76.0224Z" fill="#fff"/>
</g>
<defs>
<clipPath id="clip0_19_278">
<rect width="112" height="82" fill="white"/>
</clipPath>
</defs>
</svg>
